<?xml version="1.0" encoding="UTF-8" standalone="no"?>
<svg
   width="1080"
   height="1080"
   viewBox="0 0 270 270"
   version="1.1"
   id="svg8"
   xmlns:xlink="http://www.w3.org/1999/xlink"
   xmlns="http://www.w3.org/2000/svg"
   xmlns:svg="http://www.w3.org/2000/svg"
   xmlns:rdf="http://www.w3.org/1999/02/22-rdf-syntax-ns#"
   xmlns:cc="http://creativecommons.org/ns#"
   xmlns:dc="http://purl.org/dc/elements/1.1/">
  <defs
     id="defs2">
    <linearGradient
       id="linearGradient2601">
      <stop
         id="stop2597"
         offset="0"
         style="stop-color:#ff6309;stop-opacity:1" />
      <stop
         id="stop2599"
         offset="1"
         style="stop-color:#ff044c;stop-opacity:1" />
    </linearGradient>
    <radialGradient
       gradientUnits="userSpaceOnUse"
       gradientTransform="matrix(2.2431143,-2.2431485,2.2431314,2.2431314,-1178.6343,-1053.2525)"
       r="204.77353"
       fy="712.26617"
       fx="-61.924637"
       cy="712.26617"
       cx="-61.924637"
       id="radialGradient2920"
       xlink:href="#linearGradient2601" />
    <radialGradient
       gradientUnits="userSpaceOnUse"
       gradientTransform="matrix(-4.8526085,4.8524921,-4.8525498,-4.8525504,3545.3596,-1309.5932)"
       r="141.98738"
       fy="178.41338"
       fx="447.13364"
       cy="178.41338"
       cx="447.13364"
       id="radialGradient2952"
       xlink:href="#linearGradient2601" />
    <radialGradient
       gradientUnits="userSpaceOnUse"
       gradientTransform="matrix(-3.635318,-5.6059997e-7,5.1920592e-7,-3.6353171,3366.7961,1026.8522)"
       r="107.84281"
       fy="195.31058"
       fx="684.04688"
       cy="195.31058"
       cx="684.04688"
       id="radialGradient2976"
       xlink:href="#linearGradient2601" />
    <radialGradient
       gradientUnits="userSpaceOnUse"
       gradientTransform="matrix(-11.400674,-7.4035061e-7,8.2316735e-7,-11.400671,10913.44,4755.3857)"
       r="34.387695"
       fy="389.32349"
       fx="880.0683"
       cy="389.32349"
       cx="880.0683"
       id="radialGradient2996"
       xlink:href="#linearGradient2601" />
    <radialGradient
       gradientUnits="userSpaceOnUse"
       gradientTransform="matrix(1.2597001e-7,2.5836909,-3.1708955,9.7484078e-5,1885.1678,-733.85909)"
       r="151.7375"
       fy="440.61447"
       fx="459.61746"
       cy="440.61447"
       cx="459.61746"
       id="radialGradient3004"
       xlink:href="#linearGradient2601" />
    <radialGradient
       gradientUnits="userSpaceOnUse"
       gradientTransform="matrix(2.2595593,3.2717885e-7,-1.3842954e-7,3.1068909,-861.59753,-1336.6302)"
       r="126.18494"
       fy="658.37805"
       fx="684.04688"
       cy="658.37805"
       cx="684.04688"
       id="radialGradient3006"
       xlink:href="#linearGradient2601" />
  </defs>
  <metadata
     id="metadata5">
    <rdf:RDF>
      <cc:Work
         rdf:about="">
        <dc:format>image/svg+xml</dc:format>
        <dc:type
           rdf:resource="http://purl.org/dc/dcmitype/StillImage" />
      </cc:Work>
    </rdf:RDF>
  </metadata>
  <g
     id="layer3">
    <rect
       y="0"
       x="0"
       height="270"
       width="270"
       id="rect3008"
       style="display:none;opacity:0.999;fill:#1a1a1a;fill-opacity:1;stroke:none;stroke-width:0.5;stroke-miterlimit:4;stroke-dasharray:none" />
    <circle
       r="135"
       cy="135"
       cx="135"
       id="path2893"
       style="display:none;opacity:0.999;fill:#1a1a1a;fill-opacity:1;stroke:none;stroke-width:0.5;stroke-miterlimit:4;stroke-dasharray:none" />
    <g
       style="display:inline;stroke:none;stroke-width:0.5;stroke-miterlimit:4;stroke-dasharray:none"
       transform="matrix(1.1756153,0,0,1.1756153,-14.842543,1.6577935)"
       id="g2860">
      <path
         style="color:#000000;font-style:normal;font-variant:normal;font-weight:normal;font-stretch:normal;font-size:medium;line-height:normal;font-family:sans-serif;font-variant-ligatures:normal;font-variant-position:normal;font-variant-caps:normal;font-variant-numeric:normal;font-variant-alternates:normal;font-variant-east-asian:normal;font-feature-settings:normal;font-variation-settings:normal;text-indent:0;text-align:start;text-decoration:none;text-decoration-line:none;text-decoration-style:solid;text-decoration-color:#000000;letter-spacing:normal;word-spacing:normal;text-transform:none;writing-mode:lr-tb;direction:ltr;text-orientation:mixed;dominant-baseline:auto;baseline-shift:baseline;text-anchor:start;white-space:normal;shape-padding:0;shape-margin:0;inline-size:0;clip-rule:nonzero;display:inline;overflow:visible;visibility:visible;opacity:0.999;isolation:auto;mix-blend-mode:normal;color-interpolation:sRGB;color-interpolation-filters:linearRGB;solid-color:#000000;solid-opacity:1;vector-effect:none;fill:url(#radialGradient3004);fill-opacity:1;fill-rule:nonzero;stroke:none;stroke-width:2;stroke-linecap:butt;stroke-linejoin:miter;stroke-miterlimit:4;stroke-dasharray:none;stroke-dashoffset:0;stroke-opacity:1;color-rendering:auto;image-rendering:auto;shape-rendering:auto;text-rendering:auto;enable-background:accumulate;stop-color:#000000"
         d="m 560.68555,435.56445 c -35.53497,28.79106 -60.14394,69.34083 -68.99805,114.84961 0.0412,0.211 0.083,0.42201 0.125,0.63282 0.0628,0.31703 0.1231,0.63632 0.1875,0.95312 l -0.008,0.0195 c 0.008,0.0412 0.0174,0.0834 0.0254,0.125 l 0.0156,0.0547 0.0156,0.0547 c 0.14532,0.70852 0.29211,1.41034 0.44531,2.11718 l 0.0156,0.0937 0.008,0.0156 0.01,0.0469 c 0.0784,0.35732 0.15984,0.71352 0.24024,1.07032 v 0.008 c 0.15196,0.68152 0.30915,1.35918 0.46875,2.03906 v 0.008 l 0.0566,0.22657 0.0156,0.0547 v 0.008 c 0.0844,0.35612 0.1636,0.7069 0.25,1.0625 l 0.0156,0.0625 c 0.0868,0.35628 0.17682,0.71471 0.26562,1.07031 l 0.0312,0.11719 0.0254,0.125 0.008,0.0469 c 0.0704,0.27952 0.14715,0.55674 0.21875,0.83594 l 0.008,0.0469 0.0156,0.0625 0.0156,0.0469 c 0.0836,0.32576 0.1648,0.65136 0.25,0.97656 v 0.008 c 0.098,0.37624 0.20429,0.7494 0.30469,1.125 h -0.008 c 0.0792,0.29708 0.16139,0.59383 0.24219,0.89063 l 0.0156,0.0547 0.0254,0.0625 0.0234,0.0937 0.008,0.008 0.0156,0.0703 c 0.0972,0.35312 0.19728,0.7101 0.29688,1.0625 v 0.01 c 0.1048,0.37388 0.21351,0.74398 0.32031,1.11718 0.3196,1.1146 0.64518,2.22718 0.98437,3.33594 l 0.008,0.0156 0.0156,0.0547 v 0.008 c 0.1072,0.35024 0.21853,0.69727 0.32813,1.04687 l 0.008,0.0176 0.01,0.0469 0.0156,0.0391 c 0.106,0.3362 0.21271,0.67221 0.32031,1.00781 0.0876,0.27472 0.17643,0.55372 0.26563,0.82813 l 0.0625,0.20312 0.0234,0.0547 0.0312,0.0859 c 0.1164,0.35689 0.23316,0.71432 0.35156,1.07032 l 0.0176,0.0625 0.0312,0.0937 c 0.088,0.26452 0.17642,0.52506 0.26562,0.78906 l 0.0469,0.13281 v 0.008 l 0.0234,0.0625 c 0.1052,0.30967 0.21352,0.61267 0.32032,0.92187 l 0.041,0.10937 v 0.008 l 0.0234,0.0547 c 0.11,0.31705 0.21612,0.63673 0.32812,0.95313 l 0.0156,0.041 0.0156,0.0469 0.008,0.0156 0.0176,0.0469 c 0.12198,0.34484 0.24318,0.68725 0.36718,1.03125 l 0.01,0.008 c 0.11879,0.33244 0.23857,0.668 0.35937,1 L 500,580.1582 v 0.0156 l 0.0156,0.0664 c 0.12602,0.34404 0.25482,0.68805 0.38282,1.03125 l 0.0156,0.0547 0.01,0.0156 c 0.12639,0.33788 0.25441,0.67842 0.38281,1.01562 l 0.0234,0.0625 c 0.13001,0.34236 0.26644,0.68965 0.39844,1.03125 0.25892,0.6714 0.51485,1.33933 0.78125,2.00781 l 0.0234,0.0547 0.0918,0.21875 c 0.004,0.004 0.01,0.0116 0.0117,0.0156 0.1268,0.31608 0.25247,0.63792 0.38086,0.95312 l 0.0254,0.0547 0.0234,0.0781 0.0156,0.0469 c 0.1216,0.29728 0.2518,0.59382 0.375,0.89062 l 0.008,0.0156 0.0156,0.0469 c 0.14008,0.33804 0.28769,0.67843 0.42969,1.01563 0.2946,0.70012 0.58782,1.39711 0.89062,2.09375 l 0.0176,0.0254 0.0312,0.0859 0.0547,0.125 c 0.122,0.27916 0.24398,0.55713 0.36718,0.83593 l 0.0156,0.0469 0.0254,0.0391 0.008,0.0156 c 0.14512,0.32728 0.2903,0.65797 0.4375,0.98437 l 0.008,0.0254 0.0234,0.0469 0.008,0.0156 c 0.15032,0.33376 0.30112,0.6672 0.45312,1 0.1216,0.26756 0.24439,0.53749 0.36719,0.80469 l 0.008,0.008 c 0.17544,0.3794 0.34544,0.76223 0.52344,1.14063 l 0.0332,0.0547 0.0469,0.0859 0.0312,0.0781 c 0.15472,0.32804 0.31235,0.65717 0.46875,0.98437 l 0.008,0.008 c 0.0668,0.13868 0.13592,0.28307 0.20312,0.42187 v 0.008 c 0.1096,0.22828 0.21734,0.45169 0.32813,0.67969 h 0.008 v 0.008 c 0.14328,0.29556 0.2849,0.58802 0.42969,0.88282 l 0.0469,0.10156 0.008,0.008 0.0234,0.0547 c 0.13384,0.27161 0.27145,0.5417 0.40625,0.8125 l 0.10938,0.21875 c 0.1644,0.32723 0.334,0.65797 0.5,0.98437 l 0.0176,0.041 0.0156,0.0234 c 0.1648,0.32428 0.3336,0.64555 0.5,0.96875 v 0.01 c 0.0784,0.15152 0.15558,0.29957 0.23438,0.45117 v 0.01 h 0.008 c 0.1092,0.21096 0.21812,0.42241 0.32812,0.63281 l 0.17188,0.33594 v 0.008 c 0.26432,0.50328 0.53589,0.99904 0.80469,1.5 v 0.01 l 0.0625,0.11718 0.008,0.008 0.0391,0.0781 c 0.17424,0.32224 0.34744,0.63974 0.52344,0.96094 l 0.0176,0.0234 0.0234,0.0469 0.0156,0.0312 c 0.17,0.31132 0.34402,0.61929 0.51562,0.92969 l 0.01,0.0332 0.0156,0.0234 0.0332,0.0625 c 0.1666,0.29996 0.33981,0.59924 0.50781,0.89844 0.13584,0.24196 0.26945,0.48536 0.40625,0.72656 l 0.008,0.008 0.17969,0.32813 0.008,0.0156 0.0391,0.0625 c 0.16156,0.28372 0.32157,0.56877 0.48437,0.85157 l 0.0254,0.041 0.0234,0.0391 0.0156,0.0156 c 54.14812,93.7852 173.94866,125.88951 267.73438,71.74219 4.64456,-2.68148 8.68154,-6.25493 13.08594,-9.30469 -86.57896,20.17976 -177.50988,-17.49966 -222.79688,-95.9375 h -0.008 v -0.008 c -0.15936,-0.27692 -0.31856,-0.55053 -0.47656,-0.82813 v -0.008 c -22.56494,-39.77881 -21.49813,-86.38694 -1.4043,-123.95899 z"
         transform="scale(0.25)"
         id="path2852" />
      <path
         style="color:#000000;font-style:normal;font-variant:normal;font-weight:normal;font-stretch:normal;font-size:medium;line-height:normal;font-family:sans-serif;font-variant-ligatures:normal;font-variant-position:normal;font-variant-caps:normal;font-variant-numeric:normal;font-variant-alternates:normal;font-variant-east-asian:normal;font-feature-settings:normal;font-variation-settings:normal;text-indent:0;text-align:start;text-decoration:none;text-decoration-line:none;text-decoration-style:solid;text-decoration-color:#000000;letter-spacing:normal;word-spacing:normal;text-transform:none;writing-mode:lr-tb;direction:ltr;text-orientation:mixed;dominant-baseline:auto;baseline-shift:baseline;text-anchor:start;white-space:normal;shape-padding:0;shape-margin:0;inline-size:0;clip-rule:nonzero;display:inline;overflow:visible;visibility:visible;opacity:0.999;isolation:auto;mix-blend-mode:normal;color-interpolation:sRGB;color-interpolation-filters:linearRGB;solid-color:#000000;solid-opacity:1;vector-effect:none;fill:url(#radialGradient2996);fill-opacity:1;fill-rule:nonzero;stroke:none;stroke-width:2;stroke-linecap:butt;stroke-linejoin:miter;stroke-miterlimit:4;stroke-dasharray:none;stroke-dashoffset:0;stroke-opacity:1;color-rendering:auto;image-rendering:auto;shape-rendering:auto;text-rendering:auto;enable-background:accumulate;stop-color:#000000"
         d="m 533.11328,387.80664 c -28.67773,34.62523 -45.06448,78.65485 -45.06445,125.0293 8e-5,5.3692 1.07562,10.6548 1.51562,16 12.17424,-40.13803 35.98937,-74.67063 67.25977,-99.95899 z"
         transform="scale(0.25)"
         id="path2848" />
      <path
         style="color:#000000;font-style:normal;font-variant:normal;font-weight:normal;font-stretch:normal;font-size:medium;line-height:normal;font-family:sans-serif;font-variant-ligatures:normal;font-variant-position:normal;font-variant-caps:normal;font-variant-numeric:normal;font-variant-alternates:normal;font-variant-east-asian:normal;font-feature-settings:normal;font-variation-settings:normal;text-indent:0;text-align:start;text-decoration:none;text-decoration-line:none;text-decoration-style:solid;text-decoration-color:#000000;letter-spacing:normal;word-spacing:normal;text-transform:none;writing-mode:lr-tb;direction:ltr;text-orientation:mixed;dominant-baseline:auto;baseline-shift:baseline;text-anchor:start;white-space:normal;shape-padding:0;shape-margin:0;inline-size:0;clip-rule:nonzero;display:inline;overflow:visible;visibility:visible;opacity:0.999;isolation:auto;mix-blend-mode:normal;color-interpolation:sRGB;color-interpolation-filters:linearRGB;solid-color:#000000;solid-opacity:1;vector-effect:none;fill:url(#radialGradient2976);fill-opacity:1;fill-rule:nonzero;stroke:none;stroke-width:2;stroke-linecap:butt;stroke-linejoin:miter;stroke-miterlimit:4;stroke-dasharray:none;stroke-dashoffset:0;stroke-opacity:1;color-rendering:auto;image-rendering:auto;shape-rendering:auto;text-rendering:auto;enable-background:accumulate;stop-color:#000000"
         d="m 684.04688,316.83594 c -29.45541,2.9e-4 -58.46011,6.64399 -84.89454,19.34961 l 31.61914,54.76757 c 17.02328,-4.64607 34.89281,-7.11695 53.27735,-7.11718 0.41004,-2.4e-4 0.81652,-0.002 1.22656,0 h 0.0156 l 0.29687,0.008 h 0.008 c 45.52584,0.54678 87.40812,25.06191 110.17188,64.49219 10.19316,17.65576 15.60793,37.13747 16.78125,56.82031 9.989,-64.9412 -12.90792,-132.51208 -64.92188,-177.71875 -0.0836,-0.0287 -0.1664,-0.0575 -0.25,-0.0859 -0.3652,-0.12456 -0.72775,-0.2526 -1.09375,-0.375 -0.36856,-0.12328 -0.74017,-0.2461 -1.10937,-0.36718 -0.36872,-0.12105 -0.73978,-0.24054 -1.10938,-0.35938 -0.36972,-0.11896 -0.73897,-0.2348 -1.10937,-0.35156 -0.3708,-0.11688 -0.74559,-0.23688 -1.11719,-0.35156 -0.74272,-0.22903 -1.48112,-0.45172 -2.22656,-0.67188 h -0.008 c -0.37212,-0.1102 -0.74439,-0.22012 -1.11719,-0.32812 l -0.23438,-0.0703 c -0.29232,-0.0838 -0.5822,-0.16756 -0.875,-0.25 h -0.008 c -1.12136,-0.31728 -2.2482,-0.62463 -3.375,-0.92187 -0.37328,-0.098 -0.751,-0.19335 -1.125,-0.28907 -0.3762,-0.0969 -0.75601,-0.19442 -1.13281,-0.28906 -0.37636,-0.0945 -0.7482,-0.18893 -1.125,-0.28125 -0.37736,-0.0925 -0.75481,-0.18324 -1.13281,-0.27343 -0.37808,-0.0899 -0.75402,-0.17803 -1.13282,-0.26563 h -0.008 l -0.24219,-0.0547 c -0.29572,-0.0678 -0.58681,-0.13664 -0.88281,-0.20312 h -0.008 c -1.13676,-0.25651 -2.2729,-0.50599 -3.41406,-0.74219 -0.38064,-0.0789 -0.76724,-0.15778 -1.14844,-0.23437 -0.38076,-0.0766 -0.75943,-0.15217 -1.14063,-0.22657 -0.37896,-0.0734 -0.76142,-0.14759 -1.14062,-0.21875 h -0.008 c -0.38196,-0.0722 -0.75823,-0.14098 -1.14063,-0.21094 h -0.008 c -0.38208,-0.07 -0.75823,-0.14321 -1.14063,-0.21093 h -0.008 l -0.25,-0.0391 c -0.29496,-0.0513 -0.59542,-0.10633 -0.89062,-0.15624 -0.383,-0.065 -0.76524,-0.12474 -1.14844,-0.1875 -0.38316,-0.0627 -0.76484,-0.1271 -1.14844,-0.1875 -0.29448,-0.0464 -0.58801,-0.0956 -0.88281,-0.14063 h -0.0176 l -0.27344,-0.0391 -0.25,-0.0391 c -0.29244,-0.0436 -0.5822,-0.0906 -0.875,-0.13281 h -0.008 -0.008 c -0.3894,-0.0574 -0.78228,-0.11683 -1.17188,-0.17187 -0.004,-3.6e-4 -0.005,3.6e-4 -0.008,0 -8.97144,-1.2517 -18.01782,-1.87471 -27.07617,-1.875 z"
         transform="scale(0.25)"
         id="path2737" />
      <path
         id="path2743"
         style="color:#000000;font-style:normal;font-variant:normal;font-weight:normal;font-stretch:normal;font-size:medium;line-height:normal;font-family:sans-serif;font-variant-ligatures:normal;font-variant-position:normal;font-variant-caps:normal;font-variant-numeric:normal;font-variant-alternates:normal;font-variant-east-asian:normal;font-feature-settings:normal;font-variation-settings:normal;text-indent:0;text-align:start;text-decoration:none;text-decoration-line:none;text-decoration-style:solid;text-decoration-color:#000000;letter-spacing:normal;word-spacing:normal;text-transform:none;writing-mode:lr-tb;direction:ltr;text-orientation:mixed;dominant-baseline:auto;baseline-shift:baseline;text-anchor:start;white-space:normal;shape-padding:0;shape-margin:0;inline-size:0;clip-rule:nonzero;display:inline;overflow:visible;visibility:visible;opacity:0.999;isolation:auto;mix-blend-mode:normal;color-interpolation:sRGB;color-interpolation-filters:linearRGB;solid-color:#000000;solid-opacity:1;vector-effect:none;fill:url(#radialGradient3006);fill-opacity:1;fill-rule:nonzero;stroke:none;stroke-width:2;stroke-linecap:butt;stroke-linejoin:miter;stroke-miterlimit:4;stroke-dasharray:none;stroke-dashoffset:0;stroke-opacity:1;color-rendering:auto;image-rendering:auto;shape-rendering:auto;text-rendering:auto;enable-background:accumulate;stop-color:#000000"
         d="m 767.4375,336.40625 -0.004,0.002 c 60.77336,64.88776 73.61193,162.47964 28.32813,240.92188 v 0.008 c -0.1012,0.17544 -0.20309,0.34824 -0.30469,0.52344 l -0.0156,0.0254 -0.11719,0.20312 c -11.3042,19.27976 -27.42617,35.29339 -46.78125,46.46875 -38.44816,22.19804 -83.61037,22.30261 -120.80469,4.30469 51.13884,40.34996 120.45223,53.99675 185.09375,31.71875 0.0556,-0.0484 0.10846,-0.10004 0.16406,-0.14844 l 0.32032,-0.28125 0.0625,-0.0469 c 0.8232,-0.72356 1.6422,-1.45026 2.45312,-2.1875 l 0.0312,-0.0332 c 0.20744,-0.18832 0.4182,-0.38112 0.625,-0.57032 l 0.23438,-0.21875 c 0.206,-0.18952 0.41198,-0.37991 0.61718,-0.57031 l 0.24219,-0.22656 v 0.01 c 0.20268,-0.18832 0.40738,-0.38111 0.60938,-0.57031 l 0.24218,-0.22656 c 0.2038,-0.19212 0.40658,-0.38533 0.60938,-0.57813 l 0.21875,-0.21093 0.0937,-0.0859 0.0156,-0.0156 c 0.22008,-0.20968 0.43705,-0.42396 0.65625,-0.63476 l 0.0625,-0.0605 0.0254,-0.0254 c 0.2016,-0.19476 0.40858,-0.39034 0.60938,-0.58594 l 0.22656,-0.21875 0.14844,-0.14843 0.008,-0.0156 c 0.21264,-0.20756 0.42903,-0.4166 0.64063,-0.625 l 0.0391,-0.0312 v -0.008 c 0.19692,-0.19452 0.39775,-0.38293 0.59375,-0.57813 l 0.25,-0.25976 0.0469,-0.0449 c 0.23436,-0.2338 0.46212,-0.46793 0.69532,-0.70313 l 0.0156,-0.01 0.0703,-0.0703 0.14063,-0.14844 c 0.21652,-0.22 0.43284,-0.43505 0.64844,-0.65624 h 0.01 v -0.008 c 0.26408,-0.2706 0.52667,-0.5405 0.78907,-0.8125 l 0.0234,-0.0234 0.0469,-0.0469 c 0.17544,-0.18168 0.34863,-0.36447 0.52343,-0.54687 l 0.24219,-0.25 c 0.15856,-0.16641 0.31856,-0.33321 0.47657,-0.5 0.1076,-0.1132 0.21311,-0.23015 0.32031,-0.34376 0.265,-0.28071 0.53367,-0.56134 0.79687,-0.84374 0.52936,-0.56869 1.05561,-1.14383 1.57813,-1.71876 0.26036,-0.28612 0.52245,-0.57177 0.78125,-0.85937 0.25928,-0.2892 0.51583,-0.5842 0.77344,-0.875 l 0.008,-0.008 c 0.25568,-0.28712 0.51162,-0.57058 0.76562,-0.85938 0.25596,-0.2924 0.51123,-0.58881 0.76563,-0.88281 l 0.008,-0.008 c 0.18148,-0.20876 0.35866,-0.4154 0.53906,-0.625 l 0.21875,-0.25 c 0.0936,-0.1088 0.18024,-0.21893 0.27344,-0.32813 7.74148,-9.07692 14.6435,-18.84083 20.60938,-29.17187 54.14671,-93.7866 22.04429,-213.59525 -71.74219,-267.74219 -4.64988,-2.68464 -9.76807,-4.39586 -14.61719,-6.6875 z"
         transform="scale(0.25)" />
      <path
         id="path2826"
         style="color:#000000;font-style:normal;font-variant:normal;font-weight:normal;font-stretch:normal;font-size:medium;line-height:normal;font-family:sans-serif;font-variant-ligatures:normal;font-variant-position:normal;font-variant-caps:normal;font-variant-numeric:normal;font-variant-alternates:normal;font-variant-east-asian:normal;font-feature-settings:normal;font-variation-settings:normal;text-indent:0;text-align:start;text-decoration:none;text-decoration-line:none;text-decoration-style:solid;text-decoration-color:#000000;letter-spacing:normal;word-spacing:normal;text-transform:none;writing-mode:lr-tb;direction:ltr;text-orientation:mixed;dominant-baseline:auto;baseline-shift:baseline;text-anchor:start;white-space:normal;shape-padding:0;shape-margin:0;inline-size:0;clip-rule:nonzero;display:inline;overflow:visible;visibility:visible;opacity:0.999;isolation:auto;mix-blend-mode:normal;color-interpolation:sRGB;color-interpolation-filters:linearRGB;solid-color:#000000;solid-opacity:1;vector-effect:none;fill:url(#radialGradient2952);fill-opacity:1;fill-rule:nonzero;stroke:none;stroke-width:2;stroke-linecap:butt;stroke-linejoin:miter;stroke-miterlimit:4;stroke-dasharray:none;stroke-dashoffset:0;stroke-opacity:1;color-rendering:auto;image-rendering:auto;shape-rendering:auto;text-rendering:auto;enable-background:accumulate;stop-color:#000000"
         d="m 553.72852,273.50195 -38.68555,67.00586 83.31641,144.30469 0.008,-0.008 L 600.5,488.5 c 38.06792,65.92364 108.58002,101.3637 179.6875,97.79102 2.98816,-3.90852 5.74736,-8.00491 8.25,-12.2754 l 0.008,-0.0156 0.0937,-0.14844 c 0.0984,-0.17 0.19888,-0.34522 0.29688,-0.51562 3.81688,-6.61124 7.20824,-13.36718 10.18164,-20.23242 -56.04556,-9.99092 -106.93127,-43.2487 -138.04883,-94.61914 l -0.32031,0.21093 z"
         transform="scale(0.25)" />
      <path
         id="path2755"
         style="color:#000000;font-style:normal;font-variant:normal;font-weight:normal;font-stretch:normal;font-size:medium;line-height:normal;font-family:sans-serif;font-variant-ligatures:normal;font-variant-position:normal;font-variant-caps:normal;font-variant-numeric:normal;font-variant-alternates:normal;font-variant-east-asian:normal;font-feature-settings:normal;font-variation-settings:normal;text-indent:0;text-align:start;text-decoration:none;text-decoration-line:none;text-decoration-style:solid;text-decoration-color:#000000;letter-spacing:normal;word-spacing:normal;text-transform:none;writing-mode:lr-tb;direction:ltr;text-orientation:mixed;dominant-baseline:auto;baseline-shift:baseline;text-anchor:start;white-space:normal;shape-padding:0;shape-margin:0;inline-size:0;clip-rule:nonzero;display:inline;overflow:visible;visibility:visible;opacity:0.999;isolation:auto;mix-blend-mode:normal;color-interpolation:sRGB;color-interpolation-filters:linearRGB;solid-color:#000000;solid-opacity:1;vector-effect:none;fill:url(#radialGradient2920);fill-opacity:1;fill-rule:nonzero;stroke:none;stroke-width:2;stroke-linecap:butt;stroke-linejoin:miter;stroke-miterlimit:4;stroke-dasharray:none;stroke-dashoffset:0;stroke-opacity:1;color-rendering:auto;image-rendering:auto;shape-rendering:auto;text-rendering:auto;enable-background:accumulate;stop-color:#000000"
         d="m 510.42188,198.50781 -150.17969,260.10938 -0.32031,-0.21094 c -45.9907,75.9286 -135.15882,112.30274 -220.35938,92.4375 4.40739,3.05216 8.44585,6.62125 13.09375,9.30469 93.78114,54.14468 213.58243,22.0504 267.73437,-71.72656 l 2.13282,-3.69532 0.008,0.008 126.57813,-219.22657 z"
         transform="scale(0.25)" />
    </g>
    <g
       transform="matrix(1.1756153,0,0,1.1756153,-14.842543,1.6577935)"
       style="display:none;fill:#ffffff;stroke:none;stroke-width:0.5;stroke-miterlimit:4;stroke-dasharray:none"
       id="g2874">
      <path
         id="path2862"
         transform="scale(0.25)"
         d="m 560.68555,435.56445 c -35.53497,28.79106 -60.14394,69.34083 -68.99805,114.84961 0.0412,0.211 0.083,0.42201 0.125,0.63282 0.0628,0.31703 0.1231,0.63632 0.1875,0.95312 l -0.008,0.0195 c 0.008,0.0412 0.0174,0.0834 0.0254,0.125 l 0.0156,0.0547 0.0156,0.0547 c 0.14532,0.70852 0.29211,1.41034 0.44531,2.11718 l 0.0156,0.0937 0.008,0.0156 0.01,0.0469 c 0.0784,0.35732 0.15984,0.71352 0.24024,1.07032 v 0.008 c 0.15196,0.68152 0.30915,1.35918 0.46875,2.03906 v 0.008 l 0.0566,0.22657 0.0156,0.0547 v 0.008 c 0.0844,0.35612 0.1636,0.7069 0.25,1.0625 l 0.0156,0.0625 c 0.0868,0.35628 0.17682,0.71471 0.26562,1.07031 l 0.0312,0.11719 0.0254,0.125 0.008,0.0469 c 0.0704,0.27952 0.14715,0.55674 0.21875,0.83594 l 0.008,0.0469 0.0156,0.0625 0.0156,0.0469 c 0.0836,0.32576 0.1648,0.65136 0.25,0.97656 v 0.008 c 0.098,0.37624 0.20429,0.7494 0.30469,1.125 h -0.008 c 0.0792,0.29708 0.16139,0.59383 0.24219,0.89063 l 0.0156,0.0547 0.0254,0.0625 0.0234,0.0937 0.008,0.008 0.0156,0.0703 c 0.0972,0.35312 0.19728,0.7101 0.29688,1.0625 v 0.01 c 0.1048,0.37388 0.21351,0.74398 0.32031,1.11718 0.3196,1.1146 0.64518,2.22718 0.98437,3.33594 l 0.008,0.0156 0.0156,0.0547 v 0.008 c 0.1072,0.35024 0.21853,0.69727 0.32813,1.04687 l 0.008,0.0176 0.01,0.0469 0.0156,0.0391 c 0.106,0.3362 0.21271,0.67221 0.32031,1.00781 0.0876,0.27472 0.17643,0.55372 0.26563,0.82813 l 0.0625,0.20312 0.0234,0.0547 0.0312,0.0859 c 0.1164,0.35689 0.23316,0.71432 0.35156,1.07032 l 0.0176,0.0625 0.0312,0.0937 c 0.088,0.26452 0.17642,0.52506 0.26562,0.78906 l 0.0469,0.13281 v 0.008 l 0.0234,0.0625 c 0.1052,0.30967 0.21352,0.61267 0.32032,0.92187 l 0.041,0.10937 v 0.008 l 0.0234,0.0547 c 0.11,0.31705 0.21612,0.63673 0.32812,0.95313 l 0.0156,0.041 0.0156,0.0469 0.008,0.0156 0.0176,0.0469 c 0.12198,0.34484 0.24318,0.68725 0.36718,1.03125 l 0.01,0.008 c 0.11879,0.33244 0.23857,0.668 0.35937,1 L 500,580.1582 v 0.0156 l 0.0156,0.0664 c 0.12602,0.34404 0.25482,0.68805 0.38282,1.03125 l 0.0156,0.0547 0.01,0.0156 c 0.12639,0.33788 0.25441,0.67842 0.38281,1.01562 l 0.0234,0.0625 c 0.13001,0.34236 0.26644,0.68965 0.39844,1.03125 0.25892,0.6714 0.51485,1.33933 0.78125,2.00781 l 0.0234,0.0547 0.0918,0.21875 c 0.004,0.004 0.01,0.0116 0.0117,0.0156 0.1268,0.31608 0.25247,0.63792 0.38086,0.95312 l 0.0254,0.0547 0.0234,0.0781 0.0156,0.0469 c 0.1216,0.29728 0.2518,0.59382 0.375,0.89062 l 0.008,0.0156 0.0156,0.0469 c 0.14008,0.33804 0.28769,0.67843 0.42969,1.01563 0.2946,0.70012 0.58782,1.39711 0.89062,2.09375 l 0.0176,0.0254 0.0312,0.0859 0.0547,0.125 c 0.122,0.27916 0.24398,0.55713 0.36718,0.83593 l 0.0156,0.0469 0.0254,0.0391 0.008,0.0156 c 0.14512,0.32728 0.2903,0.65797 0.4375,0.98437 l 0.008,0.0254 0.0234,0.0469 0.008,0.0156 c 0.15032,0.33376 0.30112,0.6672 0.45312,1 0.1216,0.26756 0.24439,0.53749 0.36719,0.80469 l 0.008,0.008 c 0.17544,0.3794 0.34544,0.76223 0.52344,1.14063 l 0.0332,0.0547 0.0469,0.0859 0.0312,0.0781 c 0.15472,0.32804 0.31235,0.65717 0.46875,0.98437 l 0.008,0.008 c 0.0668,0.13868 0.13592,0.28307 0.20312,0.42187 v 0.008 c 0.1096,0.22828 0.21734,0.45169 0.32813,0.67969 h 0.008 v 0.008 c 0.14328,0.29556 0.2849,0.58802 0.42969,0.88282 l 0.0469,0.10156 0.008,0.008 0.0234,0.0547 c 0.13384,0.27161 0.27145,0.5417 0.40625,0.8125 l 0.10938,0.21875 c 0.1644,0.32723 0.334,0.65797 0.5,0.98437 l 0.0176,0.041 0.0156,0.0234 c 0.1648,0.32428 0.3336,0.64555 0.5,0.96875 v 0.01 c 0.0784,0.15152 0.15558,0.29957 0.23438,0.45117 v 0.01 h 0.008 c 0.1092,0.21096 0.21812,0.42241 0.32812,0.63281 l 0.17188,0.33594 v 0.008 c 0.26432,0.50328 0.53589,0.99904 0.80469,1.5 v 0.01 l 0.0625,0.11718 0.008,0.008 0.0391,0.0781 c 0.17424,0.32224 0.34744,0.63974 0.52344,0.96094 l 0.0176,0.0234 0.0234,0.0469 0.0156,0.0312 c 0.17,0.31132 0.34402,0.61929 0.51562,0.92969 l 0.01,0.0332 0.0156,0.0234 0.0332,0.0625 c 0.1666,0.29996 0.33981,0.59924 0.50781,0.89844 0.13584,0.24196 0.26945,0.48536 0.40625,0.72656 l 0.008,0.008 0.17969,0.32813 0.008,0.0156 0.0391,0.0625 c 0.16156,0.28372 0.32157,0.56877 0.48437,0.85157 l 0.0254,0.041 0.0234,0.0391 0.0156,0.0156 c 54.14812,93.7852 173.94866,125.88951 267.73438,71.74219 4.64456,-2.68148 8.68154,-6.25493 13.08594,-9.30469 -86.57896,20.17976 -177.50988,-17.49966 -222.79688,-95.9375 h -0.008 v -0.008 c -0.15936,-0.27692 -0.31856,-0.55053 -0.47656,-0.82813 v -0.008 c -22.56494,-39.77881 -21.49813,-86.38694 -1.4043,-123.95899 z"
         style="color:#000000;font-style:normal;font-variant:normal;font-weight:normal;font-stretch:normal;font-size:medium;line-height:normal;font-family:sans-serif;font-variant-ligatures:normal;font-variant-position:normal;font-variant-caps:normal;font-variant-numeric:normal;font-variant-alternates:normal;font-variant-east-asian:normal;font-feature-settings:normal;font-variation-settings:normal;text-indent:0;text-align:start;text-decoration:none;text-decoration-line:none;text-decoration-style:solid;text-decoration-color:#000000;letter-spacing:normal;word-spacing:normal;text-transform:none;writing-mode:lr-tb;direction:ltr;text-orientation:mixed;dominant-baseline:auto;baseline-shift:baseline;text-anchor:start;white-space:normal;shape-padding:0;shape-margin:0;inline-size:0;clip-rule:nonzero;display:inline;overflow:visible;visibility:visible;opacity:0.999;isolation:auto;mix-blend-mode:normal;color-interpolation:sRGB;color-interpolation-filters:linearRGB;solid-color:#000000;solid-opacity:1;vector-effect:none;fill:#ffffff;fill-opacity:1;fill-rule:nonzero;stroke:none;stroke-width:2;stroke-linecap:butt;stroke-linejoin:miter;stroke-miterlimit:4;stroke-dasharray:none;stroke-dashoffset:0;stroke-opacity:1;color-rendering:auto;image-rendering:auto;shape-rendering:auto;text-rendering:auto;enable-background:accumulate;stop-color:#000000" />
      <path
         id="path2864"
         transform="scale(0.25)"
         d="m 533.11328,387.80664 c -28.67773,34.62523 -45.06448,78.65485 -45.06445,125.0293 8e-5,5.3692 1.07562,10.6548 1.51562,16 12.17424,-40.13803 35.98937,-74.67063 67.25977,-99.95899 z"
         style="color:#000000;font-style:normal;font-variant:normal;font-weight:normal;font-stretch:normal;font-size:medium;line-height:normal;font-family:sans-serif;font-variant-ligatures:normal;font-variant-position:normal;font-variant-caps:normal;font-variant-numeric:normal;font-variant-alternates:normal;font-variant-east-asian:normal;font-feature-settings:normal;font-variation-settings:normal;text-indent:0;text-align:start;text-decoration:none;text-decoration-line:none;text-decoration-style:solid;text-decoration-color:#000000;letter-spacing:normal;word-spacing:normal;text-transform:none;writing-mode:lr-tb;direction:ltr;text-orientation:mixed;dominant-baseline:auto;baseline-shift:baseline;text-anchor:start;white-space:normal;shape-padding:0;shape-margin:0;inline-size:0;clip-rule:nonzero;display:inline;overflow:visible;visibility:visible;opacity:0.999;isolation:auto;mix-blend-mode:normal;color-interpolation:sRGB;color-interpolation-filters:linearRGB;solid-color:#000000;solid-opacity:1;vector-effect:none;fill:#ffffff;fill-opacity:1;fill-rule:nonzero;stroke:none;stroke-width:2;stroke-linecap:butt;stroke-linejoin:miter;stroke-miterlimit:4;stroke-dasharray:none;stroke-dashoffset:0;stroke-opacity:1;color-rendering:auto;image-rendering:auto;shape-rendering:auto;text-rendering:auto;enable-background:accumulate;stop-color:#000000" />
      <path
         id="path2866"
         transform="scale(0.25)"
         d="m 684.04688,316.83594 c -29.45541,2.9e-4 -58.46011,6.64399 -84.89454,19.34961 l 31.61914,54.76757 c 17.02328,-4.64607 34.89281,-7.11695 53.27735,-7.11718 0.41004,-2.4e-4 0.81652,-0.002 1.22656,0 h 0.0156 l 0.29687,0.008 h 0.008 c 45.52584,0.54678 87.40812,25.06191 110.17188,64.49219 10.19316,17.65576 15.60793,37.13747 16.78125,56.82031 9.989,-64.9412 -12.90792,-132.51208 -64.92188,-177.71875 -0.0836,-0.0287 -0.1664,-0.0575 -0.25,-0.0859 -0.3652,-0.12456 -0.72775,-0.2526 -1.09375,-0.375 -0.36856,-0.12328 -0.74017,-0.2461 -1.10937,-0.36718 -0.36872,-0.12105 -0.73978,-0.24054 -1.10938,-0.35938 -0.36972,-0.11896 -0.73897,-0.2348 -1.10937,-0.35156 -0.3708,-0.11688 -0.74559,-0.23688 -1.11719,-0.35156 -0.74272,-0.22903 -1.48112,-0.45172 -2.22656,-0.67188 h -0.008 c -0.37212,-0.1102 -0.74439,-0.22012 -1.11719,-0.32812 l -0.23438,-0.0703 c -0.29232,-0.0838 -0.5822,-0.16756 -0.875,-0.25 h -0.008 c -1.12136,-0.31728 -2.2482,-0.62463 -3.375,-0.92187 -0.37328,-0.098 -0.751,-0.19335 -1.125,-0.28907 -0.3762,-0.0969 -0.75601,-0.19442 -1.13281,-0.28906 -0.37636,-0.0945 -0.7482,-0.18893 -1.125,-0.28125 -0.37736,-0.0925 -0.75481,-0.18324 -1.13281,-0.27343 -0.37808,-0.0899 -0.75402,-0.17803 -1.13282,-0.26563 h -0.008 l -0.24219,-0.0547 c -0.29572,-0.0678 -0.58681,-0.13664 -0.88281,-0.20312 h -0.008 c -1.13676,-0.25651 -2.2729,-0.50599 -3.41406,-0.74219 -0.38064,-0.0789 -0.76724,-0.15778 -1.14844,-0.23437 -0.38076,-0.0766 -0.75943,-0.15217 -1.14063,-0.22657 -0.37896,-0.0734 -0.76142,-0.14759 -1.14062,-0.21875 h -0.008 c -0.38196,-0.0722 -0.75823,-0.14098 -1.14063,-0.21094 h -0.008 c -0.38208,-0.07 -0.75823,-0.14321 -1.14063,-0.21093 h -0.008 l -0.25,-0.0391 c -0.29496,-0.0513 -0.59542,-0.10633 -0.89062,-0.15624 -0.383,-0.065 -0.76524,-0.12474 -1.14844,-0.1875 -0.38316,-0.0627 -0.76484,-0.1271 -1.14844,-0.1875 -0.29448,-0.0464 -0.58801,-0.0956 -0.88281,-0.14063 h -0.0176 l -0.27344,-0.0391 -0.25,-0.0391 c -0.29244,-0.0436 -0.5822,-0.0906 -0.875,-0.13281 h -0.008 -0.008 c -0.3894,-0.0574 -0.78228,-0.11683 -1.17188,-0.17187 -0.004,-3.6e-4 -0.005,3.6e-4 -0.008,0 -8.97144,-1.2517 -18.01782,-1.87471 -27.07617,-1.875 z"
         style="color:#000000;font-style:normal;font-variant:normal;font-weight:normal;font-stretch:normal;font-size:medium;line-height:normal;font-family:sans-serif;font-variant-ligatures:normal;font-variant-position:normal;font-variant-caps:normal;font-variant-numeric:normal;font-variant-alternates:normal;font-variant-east-asian:normal;font-feature-settings:normal;font-variation-settings:normal;text-indent:0;text-align:start;text-decoration:none;text-decoration-line:none;text-decoration-style:solid;text-decoration-color:#000000;letter-spacing:normal;word-spacing:normal;text-transform:none;writing-mode:lr-tb;direction:ltr;text-orientation:mixed;dominant-baseline:auto;baseline-shift:baseline;text-anchor:start;white-space:normal;shape-padding:0;shape-margin:0;inline-size:0;clip-rule:nonzero;display:inline;overflow:visible;visibility:visible;opacity:0.999;isolation:auto;mix-blend-mode:normal;color-interpolation:sRGB;color-interpolation-filters:linearRGB;solid-color:#000000;solid-opacity:1;vector-effect:none;fill:#ffffff;fill-opacity:1;fill-rule:nonzero;stroke:none;stroke-width:2;stroke-linecap:butt;stroke-linejoin:miter;stroke-miterlimit:4;stroke-dasharray:none;stroke-dashoffset:0;stroke-opacity:1;color-rendering:auto;image-rendering:auto;shape-rendering:auto;text-rendering:auto;enable-background:accumulate;stop-color:#000000" />
      <path
         transform="scale(0.25)"
         d="m 767.4375,336.40625 -0.004,0.002 c 60.77336,64.88776 73.61193,162.47964 28.32813,240.92188 v 0.008 c -0.1012,0.17544 -0.20309,0.34824 -0.30469,0.52344 l -0.0156,0.0254 -0.11719,0.20312 c -11.3042,19.27976 -27.42617,35.29339 -46.78125,46.46875 -38.44816,22.19804 -83.61037,22.30261 -120.80469,4.30469 51.13884,40.34996 120.45223,53.99675 185.09375,31.71875 0.0556,-0.0484 0.10846,-0.10004 0.16406,-0.14844 l 0.32032,-0.28125 0.0625,-0.0469 c 0.8232,-0.72356 1.6422,-1.45026 2.45312,-2.1875 l 0.0312,-0.0332 c 0.20744,-0.18832 0.4182,-0.38112 0.625,-0.57032 l 0.23438,-0.21875 c 0.206,-0.18952 0.41198,-0.37991 0.61718,-0.57031 l 0.24219,-0.22656 v 0.01 c 0.20268,-0.18832 0.40738,-0.38111 0.60938,-0.57031 l 0.24218,-0.22656 c 0.2038,-0.19212 0.40658,-0.38533 0.60938,-0.57813 l 0.21875,-0.21093 0.0937,-0.0859 0.0156,-0.0156 c 0.22008,-0.20968 0.43705,-0.42396 0.65625,-0.63476 l 0.0625,-0.0605 0.0254,-0.0254 c 0.2016,-0.19476 0.40858,-0.39034 0.60938,-0.58594 l 0.22656,-0.21875 0.14844,-0.14843 0.008,-0.0156 c 0.21264,-0.20756 0.42903,-0.4166 0.64063,-0.625 l 0.0391,-0.0312 v -0.008 c 0.19692,-0.19452 0.39775,-0.38293 0.59375,-0.57813 l 0.25,-0.25976 0.0469,-0.0449 c 0.23436,-0.2338 0.46212,-0.46793 0.69532,-0.70313 l 0.0156,-0.01 0.0703,-0.0703 0.14063,-0.14844 c 0.21652,-0.22 0.43284,-0.43505 0.64844,-0.65624 h 0.01 v -0.008 c 0.26408,-0.2706 0.52667,-0.5405 0.78907,-0.8125 l 0.0234,-0.0234 0.0469,-0.0469 c 0.17544,-0.18168 0.34863,-0.36447 0.52343,-0.54687 l 0.24219,-0.25 c 0.15856,-0.16641 0.31856,-0.33321 0.47657,-0.5 0.1076,-0.1132 0.21311,-0.23015 0.32031,-0.34376 0.265,-0.28071 0.53367,-0.56134 0.79687,-0.84374 0.52936,-0.56869 1.05561,-1.14383 1.57813,-1.71876 0.26036,-0.28612 0.52245,-0.57177 0.78125,-0.85937 0.25928,-0.2892 0.51583,-0.5842 0.77344,-0.875 l 0.008,-0.008 c 0.25568,-0.28712 0.51162,-0.57058 0.76562,-0.85938 0.25596,-0.2924 0.51123,-0.58881 0.76563,-0.88281 l 0.008,-0.008 c 0.18148,-0.20876 0.35866,-0.4154 0.53906,-0.625 l 0.21875,-0.25 c 0.0936,-0.1088 0.18024,-0.21893 0.27344,-0.32813 7.74148,-9.07692 14.6435,-18.84083 20.60938,-29.17187 54.14671,-93.7866 22.04429,-213.59525 -71.74219,-267.74219 -4.64988,-2.68464 -9.76807,-4.39586 -14.61719,-6.6875 z"
         style="color:#000000;font-style:normal;font-variant:normal;font-weight:normal;font-stretch:normal;font-size:medium;line-height:normal;font-family:sans-serif;font-variant-ligatures:normal;font-variant-position:normal;font-variant-caps:normal;font-variant-numeric:normal;font-variant-alternates:normal;font-variant-east-asian:normal;font-feature-settings:normal;font-variation-settings:normal;text-indent:0;text-align:start;text-decoration:none;text-decoration-line:none;text-decoration-style:solid;text-decoration-color:#000000;letter-spacing:normal;word-spacing:normal;text-transform:none;writing-mode:lr-tb;direction:ltr;text-orientation:mixed;dominant-baseline:auto;baseline-shift:baseline;text-anchor:start;white-space:normal;shape-padding:0;shape-margin:0;inline-size:0;clip-rule:nonzero;display:inline;overflow:visible;visibility:visible;opacity:0.999;isolation:auto;mix-blend-mode:normal;color-interpolation:sRGB;color-interpolation-filters:linearRGB;solid-color:#000000;solid-opacity:1;vector-effect:none;fill:#ffffff;fill-opacity:1;fill-rule:nonzero;stroke:none;stroke-width:2;stroke-linecap:butt;stroke-linejoin:miter;stroke-miterlimit:4;stroke-dasharray:none;stroke-dashoffset:0;stroke-opacity:1;color-rendering:auto;image-rendering:auto;shape-rendering:auto;text-rendering:auto;enable-background:accumulate;stop-color:#000000"
         id="path2868" />
      <path
         transform="scale(0.25)"
         d="m 553.72852,273.50195 -38.68555,67.00586 83.31641,144.30469 0.008,-0.008 L 600.5,488.5 c 38.06792,65.92364 108.58002,101.3637 179.6875,97.79102 2.98816,-3.90852 5.74736,-8.00491 8.25,-12.2754 l 0.008,-0.0156 0.0937,-0.14844 c 0.0984,-0.17 0.19888,-0.34522 0.29688,-0.51562 3.81688,-6.61124 7.20824,-13.36718 10.18164,-20.23242 -56.04556,-9.99092 -106.93127,-43.2487 -138.04883,-94.61914 l -0.32031,0.21093 z"
         style="color:#000000;font-style:normal;font-variant:normal;font-weight:normal;font-stretch:normal;font-size:medium;line-height:normal;font-family:sans-serif;font-variant-ligatures:normal;font-variant-position:normal;font-variant-caps:normal;font-variant-numeric:normal;font-variant-alternates:normal;font-variant-east-asian:normal;font-feature-settings:normal;font-variation-settings:normal;text-indent:0;text-align:start;text-decoration:none;text-decoration-line:none;text-decoration-style:solid;text-decoration-color:#000000;letter-spacing:normal;word-spacing:normal;text-transform:none;writing-mode:lr-tb;direction:ltr;text-orientation:mixed;dominant-baseline:auto;baseline-shift:baseline;text-anchor:start;white-space:normal;shape-padding:0;shape-margin:0;inline-size:0;clip-rule:nonzero;display:inline;overflow:visible;visibility:visible;opacity:0.999;isolation:auto;mix-blend-mode:normal;color-interpolation:sRGB;color-interpolation-filters:linearRGB;solid-color:#000000;solid-opacity:1;vector-effect:none;fill:#ffffff;fill-opacity:1;fill-rule:nonzero;stroke:none;stroke-width:2;stroke-linecap:butt;stroke-linejoin:miter;stroke-miterlimit:4;stroke-dasharray:none;stroke-dashoffset:0;stroke-opacity:1;color-rendering:auto;image-rendering:auto;shape-rendering:auto;text-rendering:auto;enable-background:accumulate;stop-color:#000000"
         id="path2870" />
      <path
         transform="scale(0.25)"
         d="m 510.42188,198.50781 -150.17969,260.10938 -0.32031,-0.21094 c -45.9907,75.9286 -135.15882,112.30274 -220.35938,92.4375 4.40739,3.05216 8.44585,6.62125 13.09375,9.30469 93.78114,54.14468 213.58243,22.0504 267.73437,-71.72656 l 2.13282,-3.69532 0.008,0.008 126.57813,-219.22657 z"
         style="color:#000000;font-style:normal;font-variant:normal;font-weight:normal;font-stretch:normal;font-size:medium;line-height:normal;font-family:sans-serif;font-variant-ligatures:normal;font-variant-position:normal;font-variant-caps:normal;font-variant-numeric:normal;font-variant-alternates:normal;font-variant-east-asian:normal;font-feature-settings:normal;font-variation-settings:normal;text-indent:0;text-align:start;text-decoration:none;text-decoration-line:none;text-decoration-style:solid;text-decoration-color:#000000;letter-spacing:normal;word-spacing:normal;text-transform:none;writing-mode:lr-tb;direction:ltr;text-orientation:mixed;dominant-baseline:auto;baseline-shift:baseline;text-anchor:start;white-space:normal;shape-padding:0;shape-margin:0;inline-size:0;clip-rule:nonzero;display:inline;overflow:visible;visibility:visible;opacity:0.999;isolation:auto;mix-blend-mode:normal;color-interpolation:sRGB;color-interpolation-filters:linearRGB;solid-color:#000000;solid-opacity:1;vector-effect:none;fill:#ffffff;fill-opacity:1;fill-rule:nonzero;stroke:none;stroke-width:2;stroke-linecap:butt;stroke-linejoin:miter;stroke-miterlimit:4;stroke-dasharray:none;stroke-dashoffset:0;stroke-opacity:1;color-rendering:auto;image-rendering:auto;shape-rendering:auto;text-rendering:auto;enable-background:accumulate;stop-color:#000000"
         id="path2872" />
    </g>
  </g>
</svg>
